<svg width="119" height="44" viewBox="0 0 119 44" fill="none" xmlns="http://www.w3.org/2000/svg">
<rect width="119" height="44" fill="url(#paint0_linear_128_3727)"/>
<path d="M10.688 22.416C10.688 21.328 10.9333 20.352 11.424 19.488C11.9147 18.6133 12.5813 17.9307 13.424 17.44C14.2773 16.9493 15.2213 16.704 16.256 16.704C17.472 16.704 18.5333 16.9973 19.44 17.584C20.3467 18.1707 21.008 19.0027 21.424 20.08H19.68C19.3707 19.408 18.9227 18.8907 18.336 18.528C17.76 18.1653 17.0667 17.984 16.256 17.984C15.4773 17.984 14.7787 18.1653 14.16 18.528C13.5413 18.8907 13.056 19.408 12.704 20.08C12.352 20.7413 12.176 21.52 12.176 22.416C12.176 23.3013 12.352 24.08 12.704 24.752C13.056 25.4133 13.5413 25.9253 14.16 26.288C14.7787 26.6507 15.4773 26.832 16.256 26.832C17.0667 26.832 17.76 26.656 18.336 26.304C18.9227 25.9413 19.3707 25.424 19.68 24.752H21.424C21.008 25.8187 20.3467 26.6453 19.44 27.232C18.5333 27.808 17.472 28.096 16.256 28.096C15.2213 28.096 14.2773 27.856 13.424 27.376C12.5813 26.8853 11.9147 26.208 11.424 25.344C10.9333 24.48 10.688 23.504 10.688 22.416ZM30.1834 25.52H25.3194L24.4234 28H22.8874L26.9194 16.912H28.5994L32.6154 28H31.0794L30.1834 25.52ZM29.7674 24.336L27.7514 18.704L25.7354 24.336H29.7674ZM41.2366 16.848V18.032H38.1966V28H36.7406V18.032H33.6846V16.848H41.2366ZM44.4849 18.032V21.76H48.5489V22.96H44.4849V26.8H49.0289V28H43.0289V16.832H49.0289V18.032H44.4849ZM59.68 20.08C59.3707 19.4293 58.9227 18.928 58.336 18.576C57.7493 18.2133 57.0667 18.032 56.288 18.032C55.5093 18.032 54.8053 18.2133 54.176 18.576C53.5573 18.928 53.0667 19.44 52.704 20.112C52.352 20.7733 52.176 21.5413 52.176 22.416C52.176 23.2907 52.352 24.0587 52.704 24.72C53.0667 25.3813 53.5573 25.8933 54.176 26.256C54.8053 26.608 55.5093 26.784 56.288 26.784C57.376 26.784 58.272 26.4587 58.976 25.808C59.68 25.1573 60.0907 24.2773 60.208 23.168H55.76V21.984H61.76V23.104C61.6747 24.0213 61.3867 24.864 60.896 25.632C60.4053 26.3893 59.76 26.992 58.96 27.44C58.16 27.8773 57.2693 28.096 56.288 28.096C55.2533 28.096 54.3093 27.856 53.456 27.376C52.6027 26.8853 51.9253 26.208 51.424 25.344C50.9333 24.48 50.688 23.504 50.688 22.416C50.688 21.328 50.9333 20.352 51.424 19.488C51.9253 18.6133 52.6027 17.936 53.456 17.456C54.3093 16.9653 55.2533 16.72 56.288 16.72C57.472 16.72 58.5173 17.0133 59.424 17.6C60.3413 18.1867 61.008 19.0133 61.424 20.08H59.68ZM68.7411 28.112C67.7065 28.112 66.7625 27.872 65.9091 27.392C65.0558 26.9013 64.3785 26.224 63.8771 25.36C63.3865 24.4853 63.1411 23.504 63.1411 22.416C63.1411 21.328 63.3865 20.352 63.8771 19.488C64.3785 18.6133 65.0558 17.936 65.9091 17.456C66.7625 16.9653 67.7065 16.72 68.7411 16.72C69.7865 16.72 70.7358 16.9653 71.5891 17.456C72.4425 17.936 73.1145 18.608 73.6051 19.472C74.0958 20.336 74.3411 21.3173 74.3411 22.416C74.3411 23.5147 74.0958 24.496 73.6051 25.36C73.1145 26.224 72.4425 26.9013 71.5891 27.392C70.7358 27.872 69.7865 28.112 68.7411 28.112ZM68.7411 26.848C69.5198 26.848 70.2185 26.6667 70.8371 26.304C71.4665 25.9413 71.9571 25.424 72.3091 24.752C72.6718 24.08 72.8531 23.3013 72.8531 22.416C72.8531 21.52 72.6718 20.7413 72.3091 20.08C71.9571 19.408 71.4718 18.8907 70.8531 18.528C70.2345 18.1653 69.5305 17.984 68.7411 17.984C67.9518 17.984 67.2478 18.1653 66.6291 18.528C66.0105 18.8907 65.5198 19.408 65.1571 20.08C64.8051 20.7413 64.6291 21.52 64.6291 22.416C64.6291 23.3013 64.8051 24.08 65.1571 24.752C65.5198 25.424 66.0105 25.9413 66.6291 26.304C67.2585 26.6667 67.9625 26.848 68.7411 26.848ZM82.1353 28L79.4793 23.44H77.7193V28H76.2633V16.848H79.8633C80.7059 16.848 81.4153 16.992 81.9913 17.28C82.5779 17.568 83.0153 17.9573 83.3033 18.448C83.5913 18.9387 83.7353 19.4987 83.7353 20.128C83.7353 20.896 83.5113 21.5733 83.0633 22.16C82.6259 22.7467 81.9646 23.136 81.0793 23.328L83.8793 28H82.1353ZM77.7193 22.272H79.8633C80.6526 22.272 81.2446 22.08 81.6393 21.696C82.0339 21.3013 82.2313 20.7787 82.2313 20.128C82.2313 19.4667 82.0339 18.9547 81.6393 18.592C81.2553 18.2293 80.6633 18.048 79.8633 18.048H77.7193V22.272ZM87.4536 16.848V28H85.9976V16.848H87.4536ZM96.5271 25.52H91.6631L90.7671 28H89.2311L93.2631 16.912H94.9431L98.9591 28H97.4231L96.5271 25.52ZM96.1111 24.336L94.0951 18.704L92.0791 24.336H96.1111ZM104.252 28.112C103.516 28.112 102.855 27.984 102.268 27.728C101.692 27.4613 101.239 27.0987 100.908 26.64C100.578 26.1707 100.407 25.632 100.396 25.024H101.948C102.002 25.5467 102.215 25.9893 102.588 26.352C102.972 26.704 103.527 26.88 104.252 26.88C104.946 26.88 105.49 26.7093 105.884 26.368C106.29 26.016 106.492 25.568 106.492 25.024C106.492 24.5973 106.375 24.2507 106.14 23.984C105.906 23.7173 105.612 23.5147 105.26 23.376C104.908 23.2373 104.434 23.088 103.836 22.928C103.1 22.736 102.508 22.544 102.06 22.352C101.623 22.16 101.244 21.8613 100.924 21.456C100.615 21.04 100.46 20.4853 100.46 19.792C100.46 19.184 100.615 18.6453 100.924 18.176C101.234 17.7067 101.666 17.344 102.22 17.088C102.786 16.832 103.431 16.704 104.156 16.704C105.202 16.704 106.055 16.9653 106.716 17.488C107.388 18.0107 107.767 18.704 107.852 19.568H106.252C106.199 19.1413 105.975 18.768 105.58 18.448C105.186 18.1173 104.663 17.952 104.012 17.952C103.404 17.952 102.908 18.112 102.524 18.432C102.14 18.7413 101.948 19.1787 101.948 19.744C101.948 20.1493 102.06 20.48 102.284 20.736C102.519 20.992 102.802 21.1893 103.132 21.328C103.474 21.456 103.948 21.6053 104.556 21.776C105.292 21.9787 105.884 22.1813 106.332 22.384C106.78 22.576 107.164 22.88 107.484 23.296C107.804 23.7013 107.964 24.256 107.964 24.96C107.964 25.504 107.82 26.016 107.532 26.496C107.244 26.976 106.818 27.3653 106.252 27.664C105.687 27.9627 105.02 28.112 104.252 28.112Z" fill="white"/>
<defs>
<linearGradient id="paint0_linear_128_3727" x1="49.7211" y1="-5.28002" x2="204.847" y2="50.2726" gradientUnits="userSpaceOnUse">
<stop stop-color="#002F52"/>
<stop offset="1" stop-color="#326589"/>
</linearGradient>
</defs>
</svg>
